<svg width="197.654" height="197.654" xmlns="http://www.w3.org/2000/svg" xml:space="preserve" version="1.1" fill="#000000">

 <g>
  <title>Layer 1</title>
  <g stroke="null" id="svg_1">
   <g stroke="null" id="svg_2">
    <g stroke="null" id="svg_3">
     <path stroke="null" id="svg_4" d="m53.17246,131.2336c-5.40779,0 -9.80722,4.36281 -9.80722,9.72558c0,5.36277 4.39943,9.72558 9.80722,9.72558c5.40779,0 9.80722,-4.36281 9.80722,-9.72558c0,-5.36277 -4.39864,-9.72558 -9.80722,-9.72558zm0,12.96718c-1.80233,0 -3.26881,-1.4527 -3.26881,-3.2416c0,-1.7889 1.46648,-3.2416 3.26881,-3.2416c1.80233,0 3.26881,1.4527 3.26881,3.2416c0,1.7889 -1.46648,3.2416 -3.26881,3.2416z"/>
     <path stroke="null" id="svg_5" d="m159.83314,75.65008c-14.25906,-15.97178 -19.35561,-29.78774 -14.73783,-39.95661c4.49471,-9.89959 17.19599,-14.18287 22.68396,-14.18287c1.80551,0 3.26881,-1.45033 3.26881,-3.2416s-1.4633,-3.2416 -3.26881,-3.2416c-8.25579,0 -23.06825,5.72023 -28.64595,18.00398c-4.01118,8.8327 -4.52568,24.14309 15.80573,46.91852c13.09032,14.66396 18.52114,26.54929 15.70648,34.3718c-2.61219,7.25797 -11.88189,9.38937 -13.50637,9.71219c-5.66901,-12.87269 -18.94353,-24.69976 -48.6153,-24.69976c-9.09979,0 -19.40086,1.88654 -29.95919,5.47694c-4.08105,-8.56657 -11.93191,-13.54038 -19.58745,-12.0617c-4.8528,0.93382 -8.87192,4.24234 -11.31578,9.32008c-2.28745,4.74862 -2.92263,10.54523 -1.79122,16.31979c0.16277,0.83225 0.36205,1.66214 0.59707,2.47549c-14.27176,9.77597 -22.71731,20.13775 -22.71731,27.97679c0,19.16928 34.14266,21.81248 71.03805,21.81248c35.55594,0 66.26227,0 66.26227,-26.53905c0,-4.14313 -0.4216,-8.98073 -1.74596,-13.91517c3.77378,-0.88264 14.01372,-4.10219 17.48182,-13.65298c3.75314,-10.33343 -1.9516,-24.09191 -16.95303,-40.89672zm-65.04351,88.52073c-27.6892,0 -64.49963,-1.5897 -64.49963,-15.32928c0,-4.79271 6.76152,-14.06241 21.86537,-23.962l2.19138,-1.43774l-0.94325,-2.43139c-0.47877,-1.23459 -0.85353,-2.53218 -1.11236,-3.85653c-0.86623,-4.42265 -0.41525,-8.78861 1.27195,-12.29004c1.5292,-3.17546 3.89446,-5.22104 6.66227,-5.75252c0.47242,-0.09212 0.94801,-0.13621 1.42678,-0.13621c4.7869,0 9.74609,4.44155 11.96049,10.96962l1.07584,3.16916l3.16242,-1.16531c10.8783,-4.01086 21.48506,-6.13203 30.67456,-6.13203c38.01092,0.00079 45.98803,20.82591 45.98803,38.29762c0,19.12598 -21.58113,20.05665 -59.72385,20.05665z"/>
    </g>
   </g>
  </g>
 </g>
</svg>