<!DOCTYPE svg PUBLIC "-//W3C//DTD SVG 1.1//EN" "http://www.w3.org/Graphics/SVG/1.1/DTD/svg11.dtd">
<!-- Uploaded to: SVG Repo, www.svgrepo.com, Transformed by: SVG Repo Mixer Tools -->
<svg fill="#000000" width="800px" height="800px" viewBox="0 0 24 24" id="month" data-name="Flat Color" xmlns="http://www.w3.org/2000/svg" class="icon flat-color">
<g id="SVGRepo_bgCarrier" stroke-width="0"/>
<g id="SVGRepo_tracerCarrier" stroke-linecap="round" stroke-linejoin="round"/>
<g id="SVGRepo_iconCarrier">
<path id="primary" d="M20,3H4A2,2,0,0,0,2,5V20a2,2,0,0,0,2,2H15a1,1,0,0,0,.71-.29l6-6A1,1,0,0,0,22,15V5A2,2,0,0,0,20,3Z" style="fill: #ddf3e8;"/>
<path id="secondary" d="M22,5V8H2V5A2,2,0,0,1,4,3H20A2,2,0,0,1,22,5ZM16,15a1,1,0,0,0-1,1v6a1,1,0,0,0,.71-.29l6-6A1,1,0,0,0,22,15Z" style="fill: #2ca9bc;"/>
<path id="primary-2" data-name="primary" d="M17,6a1,1,0,0,1-1-1V3a1,1,0,0,1,2,0V5A1,1,0,0,1,17,6ZM13,5V3a1,1,0,0,0-2,0V5a1,1,0,0,0,2,0ZM8,5V3A1,1,0,0,0,6,3V5A1,1,0,0,0,8,5Z" style="fill: #ddf3e8;"/>
</g>
</svg>