<?xml version="1.0" encoding="iso-8859-1"?>
<!-- Uploaded to: SVG Repo, www.svgrepo.com, Generator: SVG Repo Mixer Tools -->
<svg height="30px" width="30px" version="1.1" id="Layer_1" xmlns="http://www.w3.org/2000/svg" xmlns:xlink="http://www.w3.org/1999/xlink" 
	 viewBox="0 0 486.387 486.387" xml:space="preserve">
<g>
	<path style="fill:#D7E1F2;" d="M281.842,178.004h-47.315l-2.416,0.154c-3.082-30.208-28.598-53.778-59.62-53.778
		c-33.1,0-59.933,26.833-59.933,59.933c0,0.485,0.027,0.964,0.038,1.447l-2.141,0.136c-22.93,10.49-40.643,30.582-47.917,55.051
		c-5.616,18.892-15.899,36.064-30.464,49.343l-8.842,8.062c-14.876,13.563-18.108,35.8-7.587,52.963
		c12.413,20.246,34.754,33.825,60.113,33.825h206.085c56.962,0,103.568-46.606,103.568-103.568l0,0
		C385.41,224.609,338.805,178.004,281.842,178.004z"/>
	<path d="M172.492,253.745c-5.246,0-9.5-4.254-9.5-9.5s4.254-9.5,9.5-9.5c4.74,0,9.426-0.654,13.928-1.945
		c5.046-1.444,10.304,1.47,11.751,6.515c1.445,5.044-1.471,10.304-6.515,11.751C185.451,252.843,179.003,253.745,172.492,253.745z"
		/>
	<path d="M107.302,277.929c-5.819,0-10.552-4.733-10.552-10.552c0-5.818,4.733-10.551,10.552-10.551
		c5.818,0,10.551,4.733,10.551,10.551C117.853,273.196,113.119,277.929,107.302,277.929z"/>
	<path d="M486.387,191.673c0-31.735-15.303-61.89-40.936-80.664c-4.232-3.1-10.176-2.181-13.278,2.05
		c-3.1,4.233-2.182,10.178,2.05,13.278c20.766,15.209,33.164,39.634,33.164,65.336c0,41.903-32.015,76.464-72.868,80.522
		c-4.783-57.975-53.488-103.691-112.676-103.691h-41.756c-7.177-30.69-34.749-53.624-67.595-53.624
		c-36.428,0-66.373,28.206-69.194,63.923c-24.099,12.098-42.177,33.575-49.865,59.436c-5.26,17.698-14.859,33.27-27.759,45.03
		l-8.84,8.062c-18.25,16.639-22.156,43.953-9.286,64.948c14.504,23.662,40.641,38.361,68.21,38.361h206.085
		c59.077,0,107.709-45.545,112.647-103.366C445.849,287.172,486.387,244.069,486.387,191.673z M281.843,375.64H75.758
		c-21.325,0-40.768-10.95-52.012-29.291c-8.114-13.236-5.638-30.469,5.889-40.977l8.84-8.062
		c15.454-14.09,26.925-32.645,33.17-53.656c5.418-18.229,17.268-33.738,33.16-43.866c0.976,4.284,2.344,8.477,4.139,12.543
		c2.119,4.8,7.73,6.974,12.527,4.855c4.8-2.119,6.974-7.727,4.855-12.527c-2.832-6.416-4.269-13.262-4.269-20.345
		c0-27.809,22.624-50.433,50.433-50.433s50.433,22.624,50.433,50.433c0,13.207-5.069,25.694-14.275,35.158
		c-3.658,3.761-3.575,9.776,0.187,13.434c1.846,1.795,4.235,2.689,6.622,2.689c2.475,0,4.949-0.962,6.811-2.877
		c11.93-12.266,18.81-28.218,19.578-45.213h39.995c51.869,0,94.068,42.199,94.068,94.069
		C375.91,333.441,333.711,375.64,281.843,375.64z"/>
	<path d="M404.7,112.587c-0.632,0-1.273-0.063-1.916-0.195c-5.332-1.091-10.824-1.645-16.323-1.645c-5.246,0-9.5-4.254-9.5-9.5
		s4.254-9.5,9.5-9.5c6.776,0,13.55,0.683,20.134,2.031c5.14,1.052,8.454,6.072,7.401,11.212
		C413.076,109.488,409.118,112.587,404.7,112.587z"/>
	<path d="M273.587,361.944h-108.3c-5.246,0-9.5-4.254-9.5-9.5s4.254-9.5,9.5-9.5h108.3c5.246,0,9.5,4.254,9.5,9.5
		S278.833,361.944,273.587,361.944z"/>
</g>
</svg>